<?xml version="1.0" encoding="UTF-8" standalone="no"?>
<svg
   xmlns:dc="http://purl.org/dc/elements/1.1/"
   xmlns:cc="http://creativecommons.org/ns#"
   xmlns:rdf="http://www.w3.org/1999/02/22-rdf-syntax-ns#"
   xmlns:svg="http://www.w3.org/2000/svg"
   xmlns="http://www.w3.org/2000/svg"
   xmlns:sodipodi="http://sodipodi.sourceforge.net/DTD/sodipodi-0.dtd"
   xmlns:inkscape="http://www.inkscape.org/namespaces/inkscape"
   enable-background="new 0 0 50 50"
   height="50"
   id="Layer_1"
   version="1.1"
   viewBox="0 0 50 50"
   width="50"
   xml:space="preserve"
   sodipodi:docname="user.svg"
   inkscape:version="0.92.4 (5da689c313, 2019-01-14)"><metadata
     id="metadata13"><rdf:RDF><cc:Work
         rdf:about=""><dc:format>image/svg+xml</dc:format><dc:type
           rdf:resource="http://purl.org/dc/dcmitype/StillImage" /></cc:Work></rdf:RDF></metadata><defs
     id="defs11" /><sodipodi:namedview
     pagecolor="#ffffff"
     bordercolor="#666666"
     borderopacity="1"
     objecttolerance="10"
     gridtolerance="10"
     guidetolerance="10"
     inkscape:pageopacity="0"
     inkscape:pageshadow="2"
     inkscape:window-width="640"
     inkscape:window-height="480"
     id="namedview9"
     showgrid="false"
     inkscape:zoom="11.200571"
     inkscape:cx="21.719249"
     inkscape:cy="26.409573"
     inkscape:current-layer="Layer_1" /><rect
     style="opacity:1;fill:#ffffff;fill-opacity:1;stroke:none;stroke-width:1;stroke-linecap:square;stroke-linejoin:round;stroke-miterlimit:4;stroke-dasharray:8, 8;stroke-dashoffset:0;stroke-opacity:1"
     id="rect7078"
     width="72.407021"
     height="64.550278"
     x="-11.070864"
     y="-8.7470036" /><circle
     cx="25"
     cy="25"
     r="24"
     stroke-miterlimit="10"
     id="circle2"
     style="fill:none;stroke:#000000;stroke-width:2;stroke-linecap:round;stroke-miterlimit:10" /><rect
     height="50"
     width="50"
     id="rect4"
     x="-2.6645353e-15"
     y="0"
     style="fill:none" /><path
     d="m 29.933,35.528 c -0.026,-0.287 -0.045,-0.748 -0.06,-1.226 4.345,-0.445 7.393,-1.487 7.393,-2.701 -0.012,-0.002 -0.011,-0.05 -0.011,-0.07 -3.248,-2.927 2.816,-23.728 -8.473,-23.306 -0.709,-0.6 -1.95,-1.133 -3.73,-1.133 -15.291,1.157 -8.53,20.8 -12.014,24.508 -0.002,10e-4 -0.005,10e-4 -0.007,10e-4 0,0.002 10e-4,0.004 10e-4,0.006 0,0.001 -10e-4,0.002 -10e-4,0.002 0,0 10e-4,0 0.002,10e-4 0.014,1.189 2.959,2.212 7.178,2.668 -0.012,0.29 -0.037,0.649 -0.092,1.25 -1.282,3.447 -7.958,3.663 -11.659,7.092 2.023,1.766 9.072,6.508 16.634,6.508 7.562,0 13.842,-3.589 16.346,-6.608 -3.709,-3.332 -10.238,-3.579 -11.507,-6.992 z"
     id="path6"
     inkscape:connector-curvature="0" /></svg>