<?xml version="1.0" encoding="UTF-8" standalone="no"?>
<svg
   xmlns:dc="http://purl.org/dc/elements/1.1/"
   xmlns:cc="http://creativecommons.org/ns#"
   xmlns:rdf="http://www.w3.org/1999/02/22-rdf-syntax-ns#"
   xmlns:svg="http://www.w3.org/2000/svg"
   xmlns="http://www.w3.org/2000/svg"
   xmlns:sodipodi="http://sodipodi.sourceforge.net/DTD/sodipodi-0.dtd"
   xmlns:inkscape="http://www.inkscape.org/namespaces/inkscape"
   id="svg8"
   version="1.1"
   viewBox="0 0 13.231519 13.230169"
   height="50.003788"
   width="50.008892"
   sodipodi:docname="user.svg"
   inkscape:version="0.92.4 (5da689c313, 2019-01-14)">
  <sodipodi:namedview
     pagecolor="#ffffff"
     bordercolor="#666666"
     borderopacity="1"
     objecttolerance="10"
     gridtolerance="10"
     guidetolerance="10"
     inkscape:pageopacity="0"
     inkscape:pageshadow="2"
     inkscape:window-width="640"
     inkscape:window-height="480"
     id="namedview9"
     showgrid="false"
     inkscape:zoom="3.96"
     inkscape:cx="23.234745"
     inkscape:cy="14.231614"
     inkscape:current-layer="svg8" />
  <defs
     id="defs2" />
  <metadata
     id="metadata5">
    <rdf:RDF>
      <cc:Work
         rdf:about="">
        <dc:format>image/svg+xml</dc:format>
        <dc:type
           rdf:resource="http://purl.org/dc/dcmitype/StillImage" />
        <dc:title />
      </cc:Work>
    </rdf:RDF>
  </metadata>
  <g
     transform="translate(-89.01104,-178.88142)"
     id="layer1">
    <rect
       y="178.88142"
       x="89.01104"
       height="13.20352"
       width="13.144127"
       id="rect7078"
       style="opacity:1;fill:#ffffff;fill-opacity:1;stroke:none;stroke-width:0.19269538;stroke-linecap:square;stroke-linejoin:round;stroke-miterlimit:4;stroke-dasharray:1.5415631, 1.5415631;stroke-dashoffset:0;stroke-opacity:1" />
    <circle
       style="fill:none;stroke:#000000;stroke-width:0.52916664;stroke-linecap:round;stroke-miterlimit:10"
       id="circle2"
       stroke-miterlimit="10"
       r="6.3499999"
       cy="185.49701"
       cx="95.627975" />
    <path
       style="stroke-width:0.26458332"
       id="path6"
       d="m 96.933165,188.28254 c -0.0069,-0.0759 -0.01191,-0.19791 -0.01588,-0.32438 1.149614,-0.11774 1.956064,-0.39344 1.956064,-0.71464 -0.0032,-5.3e-4 -0.0029,-0.0132 -0.0029,-0.0185 -0.859366,-0.77443 0.745067,-6.27803 -2.241814,-6.16638 -0.18759,-0.15875 -0.515938,-0.29977 -0.986896,-0.29977 -4.045744,0.30612 -2.256896,5.50333 -3.178704,6.48441 -5.29e-4,2.6e-4 -0.0013,2.6e-4 -0.0019,2.6e-4 0,5.3e-4 2.64e-4,0.001 2.64e-4,0.002 0,2.7e-4 -2.64e-4,5.3e-4 -2.64e-4,5.3e-4 0,0 2.64e-4,0 5.29e-4,2.7e-4 0.0037,0.31459 0.782902,0.58525 1.899179,0.7059 -0.0032,0.0767 -0.0098,0.17172 -0.02434,0.33073 -0.339196,0.91202 -2.105554,0.96917 -3.084777,1.87643 0.535252,0.46725 2.4003,1.72191 4.401079,1.72191 2.000779,0 3.662363,-0.94959 4.324879,-1.74837 -0.981341,-0.88161 -2.708806,-0.94696 -3.044562,-1.84998 z"
       inkscape:connector-curvature="0" />
  </g>
</svg>
